<mxfile host="Electron" modified="2023-08-31T02:22:07.594Z" agent="Mozilla/5.0 (Windows NT 10.0; Win64; x64) AppleWebKit/537.36 (KHTML, like Gecko) draw.io/21.6.5 Chrome/114.0.5735.243 Electron/25.3.1 Safari/537.36" etag="G3vFk72TVlbcIejlqSqm" version="21.6.5" type="device" pages="2">
  <diagram id="C5RBs43oDa-KdzZeNtuy" name="Page-1">
    <mxGraphModel dx="2806" dy="836" grid="1" gridSize="10" guides="1" tooltips="1" connect="1" arrows="1" fold="1" page="1" pageScale="1" pageWidth="827" pageHeight="1169" math="0" shadow="0">
      <root>
        <mxCell id="WIyWlLk6GJQsqaUBKTNV-0" />
        <mxCell id="WIyWlLk6GJQsqaUBKTNV-1" parent="WIyWlLk6GJQsqaUBKTNV-0" />
        <mxCell id="SxJE1SRth8L4zCqISxiC-112" style="edgeStyle=orthogonalEdgeStyle;rounded=0;orthogonalLoop=1;jettySize=auto;html=1;exitX=0.371;exitY=-0.01;exitDx=0;exitDy=0;entryX=1;entryY=0.5;entryDx=0;entryDy=0;endArrow=diamond;endFill=0;startArrow=open;startFill=0;targetPerimeterSpacing=5;sourcePerimeterSpacing=6;strokeWidth=1;endSize=12;startSize=12;exitPerimeter=0;" parent="WIyWlLk6GJQsqaUBKTNV-1" source="SxJE1SRth8L4zCqISxiC-1" target="SxJE1SRth8L4zCqISxiC-109" edge="1">
          <mxGeometry relative="1" as="geometry">
            <mxPoint x="-110" y="530" as="targetPoint" />
            <Array as="points">
              <mxPoint x="-20" y="493" />
            </Array>
          </mxGeometry>
        </mxCell>
        <mxCell id="SxJE1SRth8L4zCqISxiC-1" value="EquinoModel" style="swimlane;fontStyle=0;childLayout=stackLayout;horizontal=1;startSize=26;fillColor=none;horizontalStack=0;resizeParent=1;resizeParentMax=0;resizeLast=0;collapsible=1;marginBottom=0;whiteSpace=wrap;html=1;" parent="WIyWlLk6GJQsqaUBKTNV-1" vertex="1">
          <mxGeometry x="-110" y="570" width="240" height="204" as="geometry" />
        </mxCell>
        <mxCell id="SxJE1SRth8L4zCqISxiC-2" value="+ cdEquino: string" style="text;strokeColor=none;fillColor=none;align=left;verticalAlign=top;spacingLeft=4;spacingRight=4;overflow=hidden;rotatable=0;points=[[0,0.5],[1,0.5]];portConstraint=eastwest;whiteSpace=wrap;html=1;" parent="SxJE1SRth8L4zCqISxiC-1" vertex="1">
          <mxGeometry y="26" width="240" height="22" as="geometry" />
        </mxCell>
        <mxCell id="SxJE1SRth8L4zCqISxiC-12" value="+ dtNascimento: date" style="text;strokeColor=none;fillColor=none;align=left;verticalAlign=top;spacingLeft=4;spacingRight=4;overflow=hidden;rotatable=0;points=[[0,0.5],[1,0.5]];portConstraint=eastwest;whiteSpace=wrap;html=1;" parent="SxJE1SRth8L4zCqISxiC-1" vertex="1">
          <mxGeometry y="48" width="240" height="26" as="geometry" />
        </mxCell>
        <mxCell id="SxJE1SRth8L4zCqISxiC-4" value="+ raca: RacaModel" style="text;strokeColor=none;fillColor=none;align=left;verticalAlign=top;spacingLeft=4;spacingRight=4;overflow=hidden;rotatable=0;points=[[0,0.5],[1,0.5]];portConstraint=eastwest;whiteSpace=wrap;html=1;" parent="SxJE1SRth8L4zCqISxiC-1" vertex="1">
          <mxGeometry y="74" width="240" height="26" as="geometry" />
        </mxCell>
        <mxCell id="SxJE1SRth8L4zCqISxiC-3" value="+ nmEquino: string" style="text;strokeColor=none;fillColor=none;align=left;verticalAlign=top;spacingLeft=4;spacingRight=4;overflow=hidden;rotatable=0;points=[[0,0.5],[1,0.5]];portConstraint=eastwest;whiteSpace=wrap;html=1;" parent="SxJE1SRth8L4zCqISxiC-1" vertex="1">
          <mxGeometry y="100" width="240" height="26" as="geometry" />
        </mxCell>
        <mxCell id="SxJE1SRth8L4zCqISxiC-13" value="+ vlPeso: Decimal(4,2)" style="text;strokeColor=none;fillColor=none;align=left;verticalAlign=top;spacingLeft=4;spacingRight=4;overflow=hidden;rotatable=0;points=[[0,0.5],[1,0.5]];portConstraint=eastwest;whiteSpace=wrap;html=1;" parent="SxJE1SRth8L4zCqISxiC-1" vertex="1">
          <mxGeometry y="126" width="240" height="26" as="geometry" />
        </mxCell>
        <mxCell id="Ojp43rDfp6tGNWUgZN2r-64" value="+ vlCustoMensal: Decimal(9,2)" style="text;strokeColor=none;fillColor=none;align=left;verticalAlign=top;spacingLeft=4;spacingRight=4;overflow=hidden;rotatable=0;points=[[0,0.5],[1,0.5]];portConstraint=eastwest;whiteSpace=wrap;html=1;" vertex="1" parent="SxJE1SRth8L4zCqISxiC-1">
          <mxGeometry y="152" width="240" height="26" as="geometry" />
        </mxCell>
        <mxCell id="SxJE1SRth8L4zCqISxiC-102" value="+ lsTratamento: List&amp;lt;TratamentoModel&amp;gt;" style="text;strokeColor=none;fillColor=none;align=left;verticalAlign=top;spacingLeft=4;spacingRight=4;overflow=hidden;rotatable=0;points=[[0,0.5],[1,0.5]];portConstraint=eastwest;whiteSpace=wrap;html=1;" parent="SxJE1SRth8L4zCqISxiC-1" vertex="1">
          <mxGeometry y="178" width="240" height="26" as="geometry" />
        </mxCell>
        <mxCell id="SxJE1SRth8L4zCqISxiC-5" value="RacaModel" style="swimlane;fontStyle=0;childLayout=stackLayout;horizontal=1;startSize=26;fillColor=none;horizontalStack=0;resizeParent=1;resizeParentMax=0;resizeLast=0;collapsible=1;marginBottom=0;whiteSpace=wrap;html=1;" parent="WIyWlLk6GJQsqaUBKTNV-1" vertex="1">
          <mxGeometry x="220" y="600" width="160" height="104" as="geometry" />
        </mxCell>
        <mxCell id="SxJE1SRth8L4zCqISxiC-6" value="+ cdRaca: string" style="text;strokeColor=none;fillColor=none;align=left;verticalAlign=top;spacingLeft=4;spacingRight=4;overflow=hidden;rotatable=0;points=[[0,0.5],[1,0.5]];portConstraint=eastwest;whiteSpace=wrap;html=1;" parent="SxJE1SRth8L4zCqISxiC-5" vertex="1">
          <mxGeometry y="26" width="160" height="26" as="geometry" />
        </mxCell>
        <mxCell id="SxJE1SRth8L4zCqISxiC-7" value="+ nmRaca: string" style="text;strokeColor=none;fillColor=none;align=left;verticalAlign=top;spacingLeft=4;spacingRight=4;overflow=hidden;rotatable=0;points=[[0,0.5],[1,0.5]];portConstraint=eastwest;whiteSpace=wrap;html=1;" parent="SxJE1SRth8L4zCqISxiC-5" vertex="1">
          <mxGeometry y="52" width="160" height="26" as="geometry" />
        </mxCell>
        <mxCell id="SxJE1SRth8L4zCqISxiC-8" value="+ dsRaca: string" style="text;strokeColor=none;fillColor=none;align=left;verticalAlign=top;spacingLeft=4;spacingRight=4;overflow=hidden;rotatable=0;points=[[0,0.5],[1,0.5]];portConstraint=eastwest;whiteSpace=wrap;html=1;" parent="SxJE1SRth8L4zCqISxiC-5" vertex="1">
          <mxGeometry y="78" width="160" height="26" as="geometry" />
        </mxCell>
        <mxCell id="SxJE1SRth8L4zCqISxiC-10" style="edgeStyle=orthogonalEdgeStyle;rounded=0;orthogonalLoop=1;jettySize=auto;html=1;entryX=1.019;entryY=0.707;entryDx=0;entryDy=0;entryPerimeter=0;endArrow=diamond;endFill=0;startArrow=open;startFill=0;targetPerimeterSpacing=5;sourcePerimeterSpacing=6;strokeWidth=1;endSize=12;startSize=12;" parent="WIyWlLk6GJQsqaUBKTNV-1" source="SxJE1SRth8L4zCqISxiC-7" target="SxJE1SRth8L4zCqISxiC-4" edge="1">
          <mxGeometry relative="1" as="geometry" />
        </mxCell>
        <mxCell id="SxJE1SRth8L4zCqISxiC-20" value="RolesModel" style="swimlane;fontStyle=0;childLayout=stackLayout;horizontal=1;startSize=26;fillColor=none;horizontalStack=0;resizeParent=1;resizeParentMax=0;resizeLast=0;collapsible=1;marginBottom=0;whiteSpace=wrap;html=1;" parent="WIyWlLk6GJQsqaUBKTNV-1" vertex="1">
          <mxGeometry x="230" y="151" width="200" height="78" as="geometry" />
        </mxCell>
        <mxCell id="SxJE1SRth8L4zCqISxiC-21" value="+ cdRole: string" style="text;strokeColor=none;fillColor=none;align=left;verticalAlign=top;spacingLeft=4;spacingRight=4;overflow=hidden;rotatable=0;points=[[0,0.5],[1,0.5]];portConstraint=eastwest;whiteSpace=wrap;html=1;" parent="SxJE1SRth8L4zCqISxiC-20" vertex="1">
          <mxGeometry y="26" width="200" height="26" as="geometry" />
        </mxCell>
        <mxCell id="SxJE1SRth8L4zCqISxiC-22" value="+ lsPermission: List&amp;lt;Permission&amp;gt;" style="text;strokeColor=none;fillColor=none;align=left;verticalAlign=top;spacingLeft=4;spacingRight=4;overflow=hidden;rotatable=0;points=[[0,0.5],[1,0.5]];portConstraint=eastwest;whiteSpace=wrap;html=1;" parent="SxJE1SRth8L4zCqISxiC-20" vertex="1">
          <mxGeometry y="52" width="200" height="26" as="geometry" />
        </mxCell>
        <mxCell id="SxJE1SRth8L4zCqISxiC-24" value="PermissionModel" style="swimlane;fontStyle=0;childLayout=stackLayout;horizontal=1;startSize=26;fillColor=none;horizontalStack=0;resizeParent=1;resizeParentMax=0;resizeLast=0;collapsible=1;marginBottom=0;whiteSpace=wrap;html=1;" parent="WIyWlLk6GJQsqaUBKTNV-1" vertex="1">
          <mxGeometry x="330" y="280" width="270" height="104" as="geometry" />
        </mxCell>
        <mxCell id="SxJE1SRth8L4zCqISxiC-25" value="+ cdPermission: string" style="text;strokeColor=none;fillColor=none;align=left;verticalAlign=top;spacingLeft=4;spacingRight=4;overflow=hidden;rotatable=0;points=[[0,0.5],[1,0.5]];portConstraint=eastwest;whiteSpace=wrap;html=1;" parent="SxJE1SRth8L4zCqISxiC-24" vertex="1">
          <mxGeometry y="26" width="270" height="26" as="geometry" />
        </mxCell>
        <mxCell id="SxJE1SRth8L4zCqISxiC-26" value="+ modulo: ModuleModel" style="text;strokeColor=none;fillColor=none;align=left;verticalAlign=top;spacingLeft=4;spacingRight=4;overflow=hidden;rotatable=0;points=[[0,0.5],[1,0.5]];portConstraint=eastwest;whiteSpace=wrap;html=1;" parent="SxJE1SRth8L4zCqISxiC-24" vertex="1">
          <mxGeometry y="52" width="270" height="26" as="geometry" />
        </mxCell>
        <mxCell id="SxJE1SRth8L4zCqISxiC-27" value="+ lsTpPermissao: List &amp;lt;TipoPermissaoModel&amp;gt;" style="text;strokeColor=none;fillColor=none;align=left;verticalAlign=top;spacingLeft=4;spacingRight=4;overflow=hidden;rotatable=0;points=[[0,0.5],[1,0.5]];portConstraint=eastwest;whiteSpace=wrap;html=1;" parent="SxJE1SRth8L4zCqISxiC-24" vertex="1">
          <mxGeometry y="78" width="270" height="26" as="geometry" />
        </mxCell>
        <mxCell id="SxJE1SRth8L4zCqISxiC-28" value="ModuloModel" style="swimlane;fontStyle=0;childLayout=stackLayout;horizontal=1;startSize=26;fillColor=none;horizontalStack=0;resizeParent=1;resizeParentMax=0;resizeLast=0;collapsible=1;marginBottom=0;whiteSpace=wrap;html=1;" parent="WIyWlLk6GJQsqaUBKTNV-1" vertex="1">
          <mxGeometry x="560" y="140" width="200" height="100" as="geometry" />
        </mxCell>
        <mxCell id="SxJE1SRth8L4zCqISxiC-29" value="+ cdModulo: string" style="text;strokeColor=none;fillColor=none;align=left;verticalAlign=top;spacingLeft=4;spacingRight=4;overflow=hidden;rotatable=0;points=[[0,0.5],[1,0.5]];portConstraint=eastwest;whiteSpace=wrap;html=1;" parent="SxJE1SRth8L4zCqISxiC-28" vertex="1">
          <mxGeometry y="26" width="200" height="22" as="geometry" />
        </mxCell>
        <mxCell id="SxJE1SRth8L4zCqISxiC-30" value="+ nmModulo: string" style="text;strokeColor=none;fillColor=none;align=left;verticalAlign=top;spacingLeft=4;spacingRight=4;overflow=hidden;rotatable=0;points=[[0,0.5],[1,0.5]];portConstraint=eastwest;whiteSpace=wrap;html=1;" parent="SxJE1SRth8L4zCqISxiC-28" vertex="1">
          <mxGeometry y="48" width="200" height="26" as="geometry" />
        </mxCell>
        <mxCell id="SxJE1SRth8L4zCqISxiC-31" value="+ cdModuloPath: string" style="text;strokeColor=none;fillColor=none;align=left;verticalAlign=top;spacingLeft=4;spacingRight=4;overflow=hidden;rotatable=0;points=[[0,0.5],[1,0.5]];portConstraint=eastwest;whiteSpace=wrap;html=1;" parent="SxJE1SRth8L4zCqISxiC-28" vertex="1">
          <mxGeometry y="74" width="200" height="26" as="geometry" />
        </mxCell>
        <mxCell id="SxJE1SRth8L4zCqISxiC-37" style="edgeStyle=orthogonalEdgeStyle;rounded=0;orthogonalLoop=1;jettySize=auto;html=1;endArrow=diamond;endFill=0;startArrow=open;startFill=0;targetPerimeterSpacing=5;sourcePerimeterSpacing=6;strokeWidth=1;endSize=12;startSize=12;entryX=1;entryY=0.5;entryDx=0;entryDy=0;" parent="WIyWlLk6GJQsqaUBKTNV-1" source="SxJE1SRth8L4zCqISxiC-32" target="SxJE1SRth8L4zCqISxiC-27" edge="1">
          <mxGeometry relative="1" as="geometry" />
        </mxCell>
        <mxCell id="SxJE1SRth8L4zCqISxiC-32" value="TipoPermissaoModel" style="swimlane;fontStyle=0;childLayout=stackLayout;horizontal=1;startSize=26;fillColor=none;horizontalStack=0;resizeParent=1;resizeParentMax=0;resizeLast=0;collapsible=1;marginBottom=0;whiteSpace=wrap;html=1;" parent="WIyWlLk6GJQsqaUBKTNV-1" vertex="1">
          <mxGeometry x="560" y="413" width="200" height="78" as="geometry" />
        </mxCell>
        <mxCell id="SxJE1SRth8L4zCqISxiC-33" value="+ cdTpPermissao: string" style="text;strokeColor=none;fillColor=none;align=left;verticalAlign=top;spacingLeft=4;spacingRight=4;overflow=hidden;rotatable=0;points=[[0,0.5],[1,0.5]];portConstraint=eastwest;whiteSpace=wrap;html=1;" parent="SxJE1SRth8L4zCqISxiC-32" vertex="1">
          <mxGeometry y="26" width="200" height="26" as="geometry" />
        </mxCell>
        <mxCell id="SxJE1SRth8L4zCqISxiC-34" value="+ nmTpPermissao: string" style="text;strokeColor=none;fillColor=none;align=left;verticalAlign=top;spacingLeft=4;spacingRight=4;overflow=hidden;rotatable=0;points=[[0,0.5],[1,0.5]];portConstraint=eastwest;whiteSpace=wrap;html=1;" parent="SxJE1SRth8L4zCqISxiC-32" vertex="1">
          <mxGeometry y="52" width="200" height="26" as="geometry" />
        </mxCell>
        <mxCell id="SxJE1SRth8L4zCqISxiC-39" style="edgeStyle=orthogonalEdgeStyle;rounded=0;orthogonalLoop=1;jettySize=auto;html=1;entryX=1;entryY=0.5;entryDx=0;entryDy=0;exitX=0.5;exitY=0;exitDx=0;exitDy=0;endArrow=diamond;endFill=0;startArrow=open;startFill=0;targetPerimeterSpacing=5;sourcePerimeterSpacing=6;strokeWidth=1;endSize=12;startSize=12;" parent="WIyWlLk6GJQsqaUBKTNV-1" source="SxJE1SRth8L4zCqISxiC-24" target="SxJE1SRth8L4zCqISxiC-22" edge="1">
          <mxGeometry relative="1" as="geometry">
            <mxPoint x="700" y="420" as="sourcePoint" />
          </mxGeometry>
        </mxCell>
        <mxCell id="SxJE1SRth8L4zCqISxiC-40" style="edgeStyle=orthogonalEdgeStyle;rounded=0;orthogonalLoop=1;jettySize=auto;html=1;entryX=1;entryY=0.5;entryDx=0;entryDy=0;exitX=0.48;exitY=1;exitDx=0;exitDy=0;exitPerimeter=0;endArrow=diamond;endFill=0;startArrow=open;startFill=0;targetPerimeterSpacing=5;sourcePerimeterSpacing=6;strokeWidth=1;endSize=12;startSize=12;" parent="WIyWlLk6GJQsqaUBKTNV-1" source="SxJE1SRth8L4zCqISxiC-31" target="SxJE1SRth8L4zCqISxiC-26" edge="1">
          <mxGeometry relative="1" as="geometry" />
        </mxCell>
        <mxCell id="SxJE1SRth8L4zCqISxiC-47" value="UsuarioModel" style="swimlane;fontStyle=0;childLayout=stackLayout;horizontal=1;startSize=26;fillColor=none;horizontalStack=0;resizeParent=1;resizeParentMax=0;resizeLast=0;collapsible=1;marginBottom=0;whiteSpace=wrap;html=1;" parent="WIyWlLk6GJQsqaUBKTNV-1" vertex="1">
          <mxGeometry x="-10" y="200" width="180" height="338" as="geometry" />
        </mxCell>
        <mxCell id="SxJE1SRth8L4zCqISxiC-15" value="+ cdUsuario: string" style="text;strokeColor=none;fillColor=none;align=left;verticalAlign=top;spacingLeft=4;spacingRight=4;overflow=hidden;rotatable=0;points=[[0,0.5],[1,0.5]];portConstraint=eastwest;whiteSpace=wrap;html=1;" parent="SxJE1SRth8L4zCqISxiC-47" vertex="1">
          <mxGeometry y="26" width="180" height="26" as="geometry" />
        </mxCell>
        <mxCell id="SxJE1SRth8L4zCqISxiC-16" value="+ nmUsuario: string" style="text;strokeColor=none;fillColor=none;align=left;verticalAlign=top;spacingLeft=4;spacingRight=4;overflow=hidden;rotatable=0;points=[[0,0.5],[1,0.5]];portConstraint=eastwest;whiteSpace=wrap;html=1;" parent="SxJE1SRth8L4zCqISxiC-47" vertex="1">
          <mxGeometry y="52" width="180" height="26" as="geometry" />
        </mxCell>
        <mxCell id="SxJE1SRth8L4zCqISxiC-54" value="+ cdCpfCnpj: string" style="text;strokeColor=none;fillColor=none;align=left;verticalAlign=top;spacingLeft=4;spacingRight=4;overflow=hidden;rotatable=0;points=[[0,0.5],[1,0.5]];portConstraint=eastwest;whiteSpace=wrap;html=1;" parent="SxJE1SRth8L4zCqISxiC-47" vertex="1">
          <mxGeometry y="78" width="180" height="26" as="geometry" />
        </mxCell>
        <mxCell id="SxJE1SRth8L4zCqISxiC-55" value="+ nmLogin: string" style="text;strokeColor=none;fillColor=none;align=left;verticalAlign=top;spacingLeft=4;spacingRight=4;overflow=hidden;rotatable=0;points=[[0,0.5],[1,0.5]];portConstraint=eastwest;whiteSpace=wrap;html=1;" parent="SxJE1SRth8L4zCqISxiC-47" vertex="1">
          <mxGeometry y="104" width="180" height="26" as="geometry" />
        </mxCell>
        <mxCell id="SxJE1SRth8L4zCqISxiC-53" value="+ nmEmail: string" style="text;strokeColor=none;fillColor=none;align=left;verticalAlign=top;spacingLeft=4;spacingRight=4;overflow=hidden;rotatable=0;points=[[0,0.5],[1,0.5]];portConstraint=eastwest;whiteSpace=wrap;html=1;" parent="SxJE1SRth8L4zCqISxiC-47" vertex="1">
          <mxGeometry y="130" width="180" height="26" as="geometry" />
        </mxCell>
        <mxCell id="SxJE1SRth8L4zCqISxiC-56" value="+ cdSenha: string" style="text;strokeColor=none;fillColor=none;align=left;verticalAlign=top;spacingLeft=4;spacingRight=4;overflow=hidden;rotatable=0;points=[[0,0.5],[1,0.5]];portConstraint=eastwest;whiteSpace=wrap;html=1;" parent="SxJE1SRth8L4zCqISxiC-47" vertex="1">
          <mxGeometry y="156" width="180" height="26" as="geometry" />
        </mxCell>
        <mxCell id="SxJE1SRth8L4zCqISxiC-50" value="+ lsRoles: List&amp;lt;RolesModel&amp;gt;" style="text;strokeColor=none;fillColor=none;align=left;verticalAlign=top;spacingLeft=4;spacingRight=4;overflow=hidden;rotatable=0;points=[[0,0.5],[1,0.5]];portConstraint=eastwest;whiteSpace=wrap;html=1;" parent="SxJE1SRth8L4zCqISxiC-47" vertex="1">
          <mxGeometry y="182" width="180" height="26" as="geometry" />
        </mxCell>
        <mxCell id="SxJE1SRth8L4zCqISxiC-59" value="+ usuario: UsuarioModel" style="text;strokeColor=none;fillColor=none;align=left;verticalAlign=top;spacingLeft=4;spacingRight=4;overflow=hidden;rotatable=0;points=[[0,0.5],[1,0.5]];portConstraint=eastwest;whiteSpace=wrap;html=1;" parent="SxJE1SRth8L4zCqISxiC-47" vertex="1">
          <mxGeometry y="208" width="180" height="26" as="geometry" />
        </mxCell>
        <mxCell id="SxJE1SRth8L4zCqISxiC-67" value="+ cdTokenAcesso: string" style="text;strokeColor=none;fillColor=none;align=left;verticalAlign=top;spacingLeft=4;spacingRight=4;overflow=hidden;rotatable=0;points=[[0,0.5],[1,0.5]];portConstraint=eastwest;whiteSpace=wrap;html=1;" parent="SxJE1SRth8L4zCqISxiC-47" vertex="1">
          <mxGeometry y="234" width="180" height="26" as="geometry" />
        </mxCell>
        <mxCell id="SxJE1SRth8L4zCqISxiC-68" value="+ dtExpiracaoToken: string" style="text;strokeColor=none;fillColor=none;align=left;verticalAlign=top;spacingLeft=4;spacingRight=4;overflow=hidden;rotatable=0;points=[[0,0.5],[1,0.5]];portConstraint=eastwest;whiteSpace=wrap;html=1;" parent="SxJE1SRth8L4zCqISxiC-47" vertex="1">
          <mxGeometry y="260" width="180" height="26" as="geometry" />
        </mxCell>
        <mxCell id="SxJE1SRth8L4zCqISxiC-18" value="+ tpUsuario: TipoUsuarioModel" style="text;strokeColor=none;fillColor=none;align=left;verticalAlign=top;spacingLeft=4;spacingRight=4;overflow=hidden;rotatable=0;points=[[0,0.5],[1,0.5]];portConstraint=eastwest;whiteSpace=wrap;html=1;" parent="SxJE1SRth8L4zCqISxiC-47" vertex="1">
          <mxGeometry y="286" width="180" height="26" as="geometry" />
        </mxCell>
        <mxCell id="SxJE1SRth8L4zCqISxiC-69" value="+ dtUltimoLogin: datetime" style="text;strokeColor=none;fillColor=none;align=left;verticalAlign=top;spacingLeft=4;spacingRight=4;overflow=hidden;rotatable=0;points=[[0,0.5],[1,0.5]];portConstraint=eastwest;whiteSpace=wrap;html=1;" parent="SxJE1SRth8L4zCqISxiC-47" vertex="1">
          <mxGeometry y="312" width="180" height="26" as="geometry" />
        </mxCell>
        <mxCell id="SxJE1SRth8L4zCqISxiC-60" style="edgeStyle=orthogonalEdgeStyle;rounded=0;orthogonalLoop=1;jettySize=auto;html=1;entryX=1;entryY=0.5;entryDx=0;entryDy=0;endArrow=diamond;endFill=0;startArrow=open;startFill=0;targetPerimeterSpacing=5;sourcePerimeterSpacing=6;strokeWidth=1;endSize=12;startSize=12;" parent="WIyWlLk6GJQsqaUBKTNV-1" source="SxJE1SRth8L4zCqISxiC-21" target="SxJE1SRth8L4zCqISxiC-50" edge="1">
          <mxGeometry relative="1" as="geometry">
            <mxPoint x="180" y="395" as="targetPoint" />
          </mxGeometry>
        </mxCell>
        <mxCell id="SxJE1SRth8L4zCqISxiC-62" value="TipoUsuarioModel" style="swimlane;fontStyle=0;childLayout=stackLayout;horizontal=1;startSize=26;fillColor=none;horizontalStack=0;resizeParent=1;resizeParentMax=0;resizeLast=0;collapsible=1;marginBottom=0;whiteSpace=wrap;html=1;" parent="WIyWlLk6GJQsqaUBKTNV-1" vertex="1">
          <mxGeometry x="310" y="434" width="150" height="104" as="geometry" />
        </mxCell>
        <mxCell id="SxJE1SRth8L4zCqISxiC-63" value="+ cdTpUsuario: string" style="text;strokeColor=none;fillColor=none;align=left;verticalAlign=top;spacingLeft=4;spacingRight=4;overflow=hidden;rotatable=0;points=[[0,0.5],[1,0.5]];portConstraint=eastwest;whiteSpace=wrap;html=1;" parent="SxJE1SRth8L4zCqISxiC-62" vertex="1">
          <mxGeometry y="26" width="150" height="26" as="geometry" />
        </mxCell>
        <mxCell id="SxJE1SRth8L4zCqISxiC-64" value="+ nmTpUsuario: string" style="text;strokeColor=none;fillColor=none;align=left;verticalAlign=top;spacingLeft=4;spacingRight=4;overflow=hidden;rotatable=0;points=[[0,0.5],[1,0.5]];portConstraint=eastwest;whiteSpace=wrap;html=1;" parent="SxJE1SRth8L4zCqISxiC-62" vertex="1">
          <mxGeometry y="52" width="150" height="26" as="geometry" />
        </mxCell>
        <mxCell id="SxJE1SRth8L4zCqISxiC-65" value="+ dsTpUsuario: string" style="text;strokeColor=none;fillColor=none;align=left;verticalAlign=top;spacingLeft=4;spacingRight=4;overflow=hidden;rotatable=0;points=[[0,0.5],[1,0.5]];portConstraint=eastwest;whiteSpace=wrap;html=1;" parent="SxJE1SRth8L4zCqISxiC-62" vertex="1">
          <mxGeometry y="78" width="150" height="26" as="geometry" />
        </mxCell>
        <mxCell id="SxJE1SRth8L4zCqISxiC-66" style="edgeStyle=orthogonalEdgeStyle;rounded=0;orthogonalLoop=1;jettySize=auto;html=1;entryX=1;entryY=0.5;entryDx=0;entryDy=0;exitX=0;exitY=0.5;exitDx=0;exitDy=0;endArrow=diamond;endFill=0;startArrow=open;startFill=0;targetPerimeterSpacing=5;sourcePerimeterSpacing=6;strokeWidth=1;endSize=12;startSize=12;" parent="WIyWlLk6GJQsqaUBKTNV-1" source="SxJE1SRth8L4zCqISxiC-64" target="SxJE1SRth8L4zCqISxiC-18" edge="1">
          <mxGeometry relative="1" as="geometry" />
        </mxCell>
        <mxCell id="SxJE1SRth8L4zCqISxiC-71" value="DoencaModel" style="swimlane;fontStyle=0;childLayout=stackLayout;horizontal=1;startSize=26;fillColor=none;horizontalStack=0;resizeParent=1;resizeParentMax=0;resizeLast=0;collapsible=1;marginBottom=0;whiteSpace=wrap;html=1;" parent="WIyWlLk6GJQsqaUBKTNV-1" vertex="1">
          <mxGeometry x="530" y="970" width="160" height="104" as="geometry" />
        </mxCell>
        <mxCell id="SxJE1SRth8L4zCqISxiC-72" value="+ cdDoenca: string" style="text;strokeColor=none;fillColor=none;align=left;verticalAlign=top;spacingLeft=4;spacingRight=4;overflow=hidden;rotatable=0;points=[[0,0.5],[1,0.5]];portConstraint=eastwest;whiteSpace=wrap;html=1;" parent="SxJE1SRth8L4zCqISxiC-71" vertex="1">
          <mxGeometry y="26" width="160" height="26" as="geometry" />
        </mxCell>
        <mxCell id="SxJE1SRth8L4zCqISxiC-73" value="+ nmDoenca: string" style="text;strokeColor=none;fillColor=none;align=left;verticalAlign=top;spacingLeft=4;spacingRight=4;overflow=hidden;rotatable=0;points=[[0,0.5],[1,0.5]];portConstraint=eastwest;whiteSpace=wrap;html=1;" parent="SxJE1SRth8L4zCqISxiC-71" vertex="1">
          <mxGeometry y="52" width="160" height="26" as="geometry" />
        </mxCell>
        <mxCell id="SxJE1SRth8L4zCqISxiC-74" value="+ dsDoenca: string" style="text;strokeColor=none;fillColor=none;align=left;verticalAlign=top;spacingLeft=4;spacingRight=4;overflow=hidden;rotatable=0;points=[[0,0.5],[1,0.5]];portConstraint=eastwest;whiteSpace=wrap;html=1;" parent="SxJE1SRth8L4zCqISxiC-71" vertex="1">
          <mxGeometry y="78" width="160" height="26" as="geometry" />
        </mxCell>
        <mxCell id="SxJE1SRth8L4zCqISxiC-97" style="edgeStyle=orthogonalEdgeStyle;rounded=0;orthogonalLoop=1;jettySize=auto;html=1;entryX=1;entryY=0.5;entryDx=0;entryDy=0;endArrow=diamond;endFill=0;startArrow=open;startFill=0;targetPerimeterSpacing=5;sourcePerimeterSpacing=6;strokeWidth=1;endSize=12;startSize=12;" parent="WIyWlLk6GJQsqaUBKTNV-1" source="SxJE1SRth8L4zCqISxiC-75" target="SxJE1SRth8L4zCqISxiC-82" edge="1">
          <mxGeometry relative="1" as="geometry" />
        </mxCell>
        <mxCell id="SxJE1SRth8L4zCqISxiC-75" value="TipoTratamentoModel" style="swimlane;fontStyle=0;childLayout=stackLayout;horizontal=1;startSize=26;fillColor=none;horizontalStack=0;resizeParent=1;resizeParentMax=0;resizeLast=0;collapsible=1;marginBottom=0;whiteSpace=wrap;html=1;" parent="WIyWlLk6GJQsqaUBKTNV-1" vertex="1">
          <mxGeometry x="370" y="730" width="190" height="156" as="geometry" />
        </mxCell>
        <mxCell id="SxJE1SRth8L4zCqISxiC-76" value="+ cdTpTratamento: string" style="text;strokeColor=none;fillColor=none;align=left;verticalAlign=top;spacingLeft=4;spacingRight=4;overflow=hidden;rotatable=0;points=[[0,0.5],[1,0.5]];portConstraint=eastwest;whiteSpace=wrap;html=1;" parent="SxJE1SRth8L4zCqISxiC-75" vertex="1">
          <mxGeometry y="26" width="190" height="26" as="geometry" />
        </mxCell>
        <mxCell id="SxJE1SRth8L4zCqISxiC-77" value="+ lsDoenca: List&amp;lt;DoencaModel&amp;gt;" style="text;strokeColor=none;fillColor=none;align=left;verticalAlign=top;spacingLeft=4;spacingRight=4;overflow=hidden;rotatable=0;points=[[0,0.5],[1,0.5]];portConstraint=eastwest;whiteSpace=wrap;html=1;" parent="SxJE1SRth8L4zCqISxiC-75" vertex="1">
          <mxGeometry y="52" width="190" height="26" as="geometry" />
        </mxCell>
        <mxCell id="SxJE1SRth8L4zCqISxiC-78" value="+ dsTpTratamento: string" style="text;strokeColor=none;fillColor=none;align=left;verticalAlign=top;spacingLeft=4;spacingRight=4;overflow=hidden;rotatable=0;points=[[0,0.5],[1,0.5]];portConstraint=eastwest;whiteSpace=wrap;html=1;" parent="SxJE1SRth8L4zCqISxiC-75" vertex="1">
          <mxGeometry y="78" width="190" height="26" as="geometry" />
        </mxCell>
        <mxCell id="SxJE1SRth8L4zCqISxiC-79" value="+ nmTpTratamento: string" style="text;strokeColor=none;fillColor=none;align=left;verticalAlign=top;spacingLeft=4;spacingRight=4;overflow=hidden;rotatable=0;points=[[0,0.5],[1,0.5]];portConstraint=eastwest;whiteSpace=wrap;html=1;" parent="SxJE1SRth8L4zCqISxiC-75" vertex="1">
          <mxGeometry y="104" width="190" height="26" as="geometry" />
        </mxCell>
        <mxCell id="SxJE1SRth8L4zCqISxiC-101" value="+ vlTramento: Decimal(9,2)" style="text;strokeColor=none;fillColor=none;align=left;verticalAlign=top;spacingLeft=4;spacingRight=4;overflow=hidden;rotatable=0;points=[[0,0.5],[1,0.5]];portConstraint=eastwest;whiteSpace=wrap;html=1;" parent="SxJE1SRth8L4zCqISxiC-75" vertex="1">
          <mxGeometry y="130" width="190" height="26" as="geometry" />
        </mxCell>
        <mxCell id="SxJE1SRth8L4zCqISxiC-104" style="edgeStyle=orthogonalEdgeStyle;rounded=0;orthogonalLoop=1;jettySize=auto;html=1;entryX=1;entryY=0.5;entryDx=0;entryDy=0;endArrow=diamond;endFill=0;startArrow=open;startFill=0;targetPerimeterSpacing=5;sourcePerimeterSpacing=6;strokeWidth=1;endSize=12;startSize=12;" parent="WIyWlLk6GJQsqaUBKTNV-1" source="SxJE1SRth8L4zCqISxiC-80" target="SxJE1SRth8L4zCqISxiC-102" edge="1">
          <mxGeometry relative="1" as="geometry" />
        </mxCell>
        <mxCell id="SxJE1SRth8L4zCqISxiC-80" value="TratamentoModel" style="swimlane;fontStyle=0;childLayout=stackLayout;horizontal=1;startSize=26;fillColor=none;horizontalStack=0;resizeParent=1;resizeParentMax=0;resizeLast=0;collapsible=1;marginBottom=0;whiteSpace=wrap;html=1;" parent="WIyWlLk6GJQsqaUBKTNV-1" vertex="1">
          <mxGeometry x="100" y="870" width="250" height="182" as="geometry" />
        </mxCell>
        <mxCell id="SxJE1SRth8L4zCqISxiC-81" value="+ cdTratamento: string" style="text;strokeColor=none;fillColor=none;align=left;verticalAlign=top;spacingLeft=4;spacingRight=4;overflow=hidden;rotatable=0;points=[[0,0.5],[1,0.5]];portConstraint=eastwest;whiteSpace=wrap;html=1;" parent="SxJE1SRth8L4zCqISxiC-80" vertex="1">
          <mxGeometry y="26" width="250" height="26" as="geometry" />
        </mxCell>
        <mxCell id="SxJE1SRth8L4zCqISxiC-82" value="+ tpTratamento: TipoTratamentoModel" style="text;strokeColor=none;fillColor=none;align=left;verticalAlign=top;spacingLeft=4;spacingRight=4;overflow=hidden;rotatable=0;points=[[0,0.5],[1,0.5]];portConstraint=eastwest;whiteSpace=wrap;html=1;" parent="SxJE1SRth8L4zCqISxiC-80" vertex="1">
          <mxGeometry y="52" width="250" height="26" as="geometry" />
        </mxCell>
        <mxCell id="SxJE1SRth8L4zCqISxiC-83" value="+ txLaudoMedico: string" style="text;strokeColor=none;fillColor=none;align=left;verticalAlign=top;spacingLeft=4;spacingRight=4;overflow=hidden;rotatable=0;points=[[0,0.5],[1,0.5]];portConstraint=eastwest;whiteSpace=wrap;html=1;" parent="SxJE1SRth8L4zCqISxiC-80" vertex="1">
          <mxGeometry y="78" width="250" height="26" as="geometry" />
        </mxCell>
        <mxCell id="SxJE1SRth8L4zCqISxiC-84" value="+ dtTratamento: datetime" style="text;strokeColor=none;fillColor=none;align=left;verticalAlign=top;spacingLeft=4;spacingRight=4;overflow=hidden;rotatable=0;points=[[0,0.5],[1,0.5]];portConstraint=eastwest;whiteSpace=wrap;html=1;" parent="SxJE1SRth8L4zCqISxiC-80" vertex="1">
          <mxGeometry y="104" width="250" height="26" as="geometry" />
        </mxCell>
        <mxCell id="SxJE1SRth8L4zCqISxiC-99" value="+ vlCustoTramento: Decimal(9,2)" style="text;strokeColor=none;fillColor=none;align=left;verticalAlign=top;spacingLeft=4;spacingRight=4;overflow=hidden;rotatable=0;points=[[0,0.5],[1,0.5]];portConstraint=eastwest;whiteSpace=wrap;html=1;" parent="SxJE1SRth8L4zCqISxiC-80" vertex="1">
          <mxGeometry y="130" width="250" height="26" as="geometry" />
        </mxCell>
        <mxCell id="SxJE1SRth8L4zCqISxiC-100" value="+ vltTramento: Decimal(9,2)" style="text;strokeColor=none;fillColor=none;align=left;verticalAlign=top;spacingLeft=4;spacingRight=4;overflow=hidden;rotatable=0;points=[[0,0.5],[1,0.5]];portConstraint=eastwest;whiteSpace=wrap;html=1;" parent="SxJE1SRth8L4zCqISxiC-80" vertex="1">
          <mxGeometry y="156" width="250" height="26" as="geometry" />
        </mxCell>
        <mxCell id="SxJE1SRth8L4zCqISxiC-96" style="edgeStyle=orthogonalEdgeStyle;rounded=0;orthogonalLoop=1;jettySize=auto;html=1;entryX=1;entryY=0.5;entryDx=0;entryDy=0;exitX=0.5;exitY=0;exitDx=0;exitDy=0;endArrow=diamond;endFill=0;startArrow=open;startFill=0;targetPerimeterSpacing=5;sourcePerimeterSpacing=6;strokeWidth=1;endSize=12;startSize=12;" parent="WIyWlLk6GJQsqaUBKTNV-1" source="SxJE1SRth8L4zCqISxiC-71" target="SxJE1SRth8L4zCqISxiC-77" edge="1">
          <mxGeometry relative="1" as="geometry" />
        </mxCell>
        <mxCell id="Ojp43rDfp6tGNWUgZN2r-84" style="edgeStyle=orthogonalEdgeStyle;rounded=0;orthogonalLoop=1;jettySize=auto;html=1;entryX=1;entryY=0.5;entryDx=0;entryDy=0;endArrow=diamond;endFill=0;startArrow=open;startFill=0;targetPerimeterSpacing=5;sourcePerimeterSpacing=6;strokeWidth=1;endSize=12;startSize=12;exitX=0;exitY=0.5;exitDx=0;exitDy=0;" edge="1" parent="WIyWlLk6GJQsqaUBKTNV-1" source="SxJE1SRth8L4zCqISxiC-108" target="Ojp43rDfp6tGNWUgZN2r-63">
          <mxGeometry relative="1" as="geometry">
            <Array as="points">
              <mxPoint x="-330" y="467" />
              <mxPoint x="-330" y="71" />
            </Array>
          </mxGeometry>
        </mxCell>
        <mxCell id="SxJE1SRth8L4zCqISxiC-106" value="ProprietarioModel" style="swimlane;fontStyle=0;childLayout=stackLayout;horizontal=1;startSize=26;fillColor=none;horizontalStack=0;resizeParent=1;resizeParentMax=0;resizeLast=0;collapsible=1;marginBottom=0;whiteSpace=wrap;html=1;" parent="WIyWlLk6GJQsqaUBKTNV-1" vertex="1">
          <mxGeometry x="-290" y="402" width="190" height="130" as="geometry" />
        </mxCell>
        <mxCell id="SxJE1SRth8L4zCqISxiC-107" value="+ cdProprietario: string" style="text;strokeColor=none;fillColor=none;align=left;verticalAlign=top;spacingLeft=4;spacingRight=4;overflow=hidden;rotatable=0;points=[[0,0.5],[1,0.5]];portConstraint=eastwest;whiteSpace=wrap;html=1;" parent="SxJE1SRth8L4zCqISxiC-106" vertex="1">
          <mxGeometry y="26" width="190" height="26" as="geometry" />
        </mxCell>
        <mxCell id="SxJE1SRth8L4zCqISxiC-108" value="+ usuario: UsuarioModel" style="text;strokeColor=none;fillColor=none;align=left;verticalAlign=top;spacingLeft=4;spacingRight=4;overflow=hidden;rotatable=0;points=[[0,0.5],[1,0.5]];portConstraint=eastwest;whiteSpace=wrap;html=1;" parent="SxJE1SRth8L4zCqISxiC-106" vertex="1">
          <mxGeometry y="52" width="190" height="26" as="geometry" />
        </mxCell>
        <mxCell id="SxJE1SRth8L4zCqISxiC-109" value="+ lsEquinos: List&amp;lt;EquinoModel&amp;gt;" style="text;strokeColor=none;fillColor=none;align=left;verticalAlign=top;spacingLeft=4;spacingRight=4;overflow=hidden;rotatable=0;points=[[0,0.5],[1,0.5]];portConstraint=eastwest;whiteSpace=wrap;html=1;" parent="SxJE1SRth8L4zCqISxiC-106" vertex="1">
          <mxGeometry y="78" width="190" height="26" as="geometry" />
        </mxCell>
        <mxCell id="Ojp43rDfp6tGNWUgZN2r-70" value="+ inInadimplente: bool" style="text;strokeColor=none;fillColor=none;align=left;verticalAlign=top;spacingLeft=4;spacingRight=4;overflow=hidden;rotatable=0;points=[[0,0.5],[1,0.5]];portConstraint=eastwest;whiteSpace=wrap;html=1;" vertex="1" parent="SxJE1SRth8L4zCqISxiC-106">
          <mxGeometry y="104" width="190" height="26" as="geometry" />
        </mxCell>
        <mxCell id="Ojp43rDfp6tGNWUgZN2r-0" value="VendasModel" style="swimlane;fontStyle=0;childLayout=stackLayout;horizontal=1;startSize=26;fillColor=none;horizontalStack=0;resizeParent=1;resizeParentMax=0;resizeLast=0;collapsible=1;marginBottom=0;whiteSpace=wrap;html=1;" vertex="1" parent="WIyWlLk6GJQsqaUBKTNV-1">
          <mxGeometry x="-790" y="402" width="190" height="182" as="geometry" />
        </mxCell>
        <mxCell id="Ojp43rDfp6tGNWUgZN2r-1" value="+ cdVenda: string" style="text;strokeColor=none;fillColor=none;align=left;verticalAlign=top;spacingLeft=4;spacingRight=4;overflow=hidden;rotatable=0;points=[[0,0.5],[1,0.5]];portConstraint=eastwest;whiteSpace=wrap;html=1;" vertex="1" parent="Ojp43rDfp6tGNWUgZN2r-0">
          <mxGeometry y="26" width="190" height="26" as="geometry" />
        </mxCell>
        <mxCell id="Ojp43rDfp6tGNWUgZN2r-2" value="+ comprador:&amp;nbsp;ProprietarioModel" style="text;strokeColor=none;fillColor=none;align=left;verticalAlign=top;spacingLeft=4;spacingRight=4;overflow=hidden;rotatable=0;points=[[0,0.5],[1,0.5]];portConstraint=eastwest;whiteSpace=wrap;html=1;" vertex="1" parent="Ojp43rDfp6tGNWUgZN2r-0">
          <mxGeometry y="52" width="190" height="26" as="geometry" />
        </mxCell>
        <mxCell id="Ojp43rDfp6tGNWUgZN2r-21" value="+ vlVenda: Decimal(9,2)" style="text;strokeColor=none;fillColor=none;align=left;verticalAlign=top;spacingLeft=4;spacingRight=4;overflow=hidden;rotatable=0;points=[[0,0.5],[1,0.5]];portConstraint=eastwest;whiteSpace=wrap;html=1;" vertex="1" parent="Ojp43rDfp6tGNWUgZN2r-0">
          <mxGeometry y="78" width="190" height="26" as="geometry" />
        </mxCell>
        <mxCell id="Ojp43rDfp6tGNWUgZN2r-22" value="+ anuncio: AnuncioModel" style="text;strokeColor=none;fillColor=none;align=left;verticalAlign=top;spacingLeft=4;spacingRight=4;overflow=hidden;rotatable=0;points=[[0,0.5],[1,0.5]];portConstraint=eastwest;whiteSpace=wrap;html=1;" vertex="1" parent="Ojp43rDfp6tGNWUgZN2r-0">
          <mxGeometry y="104" width="190" height="26" as="geometry" />
        </mxCell>
        <mxCell id="Ojp43rDfp6tGNWUgZN2r-39" value="+ dtVenda: datetime" style="text;strokeColor=none;fillColor=none;align=left;verticalAlign=top;spacingLeft=4;spacingRight=4;overflow=hidden;rotatable=0;points=[[0,0.5],[1,0.5]];portConstraint=eastwest;whiteSpace=wrap;html=1;" vertex="1" parent="Ojp43rDfp6tGNWUgZN2r-0">
          <mxGeometry y="130" width="190" height="26" as="geometry" />
        </mxCell>
        <mxCell id="Ojp43rDfp6tGNWUgZN2r-51" value="+ lsParcela: List&amp;lt;ParcelaModel&amp;gt;" style="text;strokeColor=none;fillColor=none;align=left;verticalAlign=top;spacingLeft=4;spacingRight=4;overflow=hidden;rotatable=0;points=[[0,0.5],[1,0.5]];portConstraint=eastwest;whiteSpace=wrap;html=1;" vertex="1" parent="Ojp43rDfp6tGNWUgZN2r-0">
          <mxGeometry y="156" width="190" height="26" as="geometry" />
        </mxCell>
        <mxCell id="Ojp43rDfp6tGNWUgZN2r-17" style="edgeStyle=orthogonalEdgeStyle;rounded=0;orthogonalLoop=1;jettySize=auto;html=1;entryX=0.5;entryY=0;entryDx=0;entryDy=0;endArrow=diamond;endFill=0;startArrow=open;startFill=0;targetPerimeterSpacing=5;sourcePerimeterSpacing=6;strokeWidth=1;endSize=12;startSize=12;" edge="1" parent="WIyWlLk6GJQsqaUBKTNV-1" source="SxJE1SRth8L4zCqISxiC-47" target="SxJE1SRth8L4zCqISxiC-106">
          <mxGeometry relative="1" as="geometry" />
        </mxCell>
        <mxCell id="Ojp43rDfp6tGNWUgZN2r-23" value="AnuncioModel" style="swimlane;fontStyle=0;childLayout=stackLayout;horizontal=1;startSize=26;fillColor=none;horizontalStack=0;resizeParent=1;resizeParentMax=0;resizeLast=0;collapsible=1;marginBottom=0;whiteSpace=wrap;html=1;" vertex="1" parent="WIyWlLk6GJQsqaUBKTNV-1">
          <mxGeometry x="-500" y="600" width="260" height="234" as="geometry" />
        </mxCell>
        <mxCell id="Ojp43rDfp6tGNWUgZN2r-24" value="+ proprietario: ProprietarioModel" style="text;strokeColor=none;fillColor=none;align=left;verticalAlign=top;spacingLeft=4;spacingRight=4;overflow=hidden;rotatable=0;points=[[0,0.5],[1,0.5]];portConstraint=eastwest;whiteSpace=wrap;html=1;" vertex="1" parent="Ojp43rDfp6tGNWUgZN2r-23">
          <mxGeometry y="26" width="260" height="26" as="geometry" />
        </mxCell>
        <mxCell id="Ojp43rDfp6tGNWUgZN2r-25" value="+ equino: EquinoModel" style="text;strokeColor=none;fillColor=none;align=left;verticalAlign=top;spacingLeft=4;spacingRight=4;overflow=hidden;rotatable=0;points=[[0,0.5],[1,0.5]];portConstraint=eastwest;whiteSpace=wrap;html=1;" vertex="1" parent="Ojp43rDfp6tGNWUgZN2r-23">
          <mxGeometry y="52" width="260" height="26" as="geometry" />
        </mxCell>
        <mxCell id="Ojp43rDfp6tGNWUgZN2r-38" value="+ vlAnuncio: Decimal(9,2)" style="text;strokeColor=none;fillColor=none;align=left;verticalAlign=top;spacingLeft=4;spacingRight=4;overflow=hidden;rotatable=0;points=[[0,0.5],[1,0.5]];portConstraint=eastwest;whiteSpace=wrap;html=1;" vertex="1" parent="Ojp43rDfp6tGNWUgZN2r-23">
          <mxGeometry y="78" width="260" height="26" as="geometry" />
        </mxCell>
        <mxCell id="Ojp43rDfp6tGNWUgZN2r-27" value="+ dtiAnuncio: datetime" style="text;strokeColor=none;fillColor=none;align=left;verticalAlign=top;spacingLeft=4;spacingRight=4;overflow=hidden;rotatable=0;points=[[0,0.5],[1,0.5]];portConstraint=eastwest;whiteSpace=wrap;html=1;" vertex="1" parent="Ojp43rDfp6tGNWUgZN2r-23">
          <mxGeometry y="104" width="260" height="26" as="geometry" />
        </mxCell>
        <mxCell id="Ojp43rDfp6tGNWUgZN2r-28" value="+ dtfAnuncio: datetime" style="text;strokeColor=none;fillColor=none;align=left;verticalAlign=top;spacingLeft=4;spacingRight=4;overflow=hidden;rotatable=0;points=[[0,0.5],[1,0.5]];portConstraint=eastwest;whiteSpace=wrap;html=1;" vertex="1" parent="Ojp43rDfp6tGNWUgZN2r-23">
          <mxGeometry y="130" width="260" height="26" as="geometry" />
        </mxCell>
        <mxCell id="Ojp43rDfp6tGNWUgZN2r-29" value="+ inFinalizado: datetime" style="text;strokeColor=none;fillColor=none;align=left;verticalAlign=top;spacingLeft=4;spacingRight=4;overflow=hidden;rotatable=0;points=[[0,0.5],[1,0.5]];portConstraint=eastwest;whiteSpace=wrap;html=1;" vertex="1" parent="Ojp43rDfp6tGNWUgZN2r-23">
          <mxGeometry y="156" width="260" height="26" as="geometry" />
        </mxCell>
        <mxCell id="Ojp43rDfp6tGNWUgZN2r-30" value="+ dtCancelamento: datetime" style="text;strokeColor=none;fillColor=none;align=left;verticalAlign=top;spacingLeft=4;spacingRight=4;overflow=hidden;rotatable=0;points=[[0,0.5],[1,0.5]];portConstraint=eastwest;whiteSpace=wrap;html=1;" vertex="1" parent="Ojp43rDfp6tGNWUgZN2r-23">
          <mxGeometry y="182" width="260" height="26" as="geometry" />
        </mxCell>
        <mxCell id="Ojp43rDfp6tGNWUgZN2r-35" value="+ statusAnuncio:&amp;nbsp;TipoStatusAnuncioModel" style="text;strokeColor=none;fillColor=none;align=left;verticalAlign=top;spacingLeft=4;spacingRight=4;overflow=hidden;rotatable=0;points=[[0,0.5],[1,0.5]];portConstraint=eastwest;whiteSpace=wrap;html=1;" vertex="1" parent="Ojp43rDfp6tGNWUgZN2r-23">
          <mxGeometry y="208" width="260" height="26" as="geometry" />
        </mxCell>
        <mxCell id="Ojp43rDfp6tGNWUgZN2r-31" value="TipoStatusAnuncioModel" style="swimlane;fontStyle=0;childLayout=stackLayout;horizontal=1;startSize=26;fillColor=none;horizontalStack=0;resizeParent=1;resizeParentMax=0;resizeLast=0;collapsible=1;marginBottom=0;whiteSpace=wrap;html=1;" vertex="1" parent="WIyWlLk6GJQsqaUBKTNV-1">
          <mxGeometry x="-190" y="792" width="200" height="78" as="geometry" />
        </mxCell>
        <mxCell id="Ojp43rDfp6tGNWUgZN2r-32" value="+ cdTpStatusAnuncio: string" style="text;strokeColor=none;fillColor=none;align=left;verticalAlign=top;spacingLeft=4;spacingRight=4;overflow=hidden;rotatable=0;points=[[0,0.5],[1,0.5]];portConstraint=eastwest;whiteSpace=wrap;html=1;" vertex="1" parent="Ojp43rDfp6tGNWUgZN2r-31">
          <mxGeometry y="26" width="200" height="26" as="geometry" />
        </mxCell>
        <mxCell id="Ojp43rDfp6tGNWUgZN2r-33" value="+ nmToStatusAnuncio: string" style="text;strokeColor=none;fillColor=none;align=left;verticalAlign=top;spacingLeft=4;spacingRight=4;overflow=hidden;rotatable=0;points=[[0,0.5],[1,0.5]];portConstraint=eastwest;whiteSpace=wrap;html=1;" vertex="1" parent="Ojp43rDfp6tGNWUgZN2r-31">
          <mxGeometry y="52" width="200" height="26" as="geometry" />
        </mxCell>
        <mxCell id="Ojp43rDfp6tGNWUgZN2r-37" style="edgeStyle=orthogonalEdgeStyle;rounded=0;orthogonalLoop=1;jettySize=auto;html=1;entryX=1;entryY=0.5;entryDx=0;entryDy=0;endArrow=diamond;endFill=0;startArrow=open;startFill=0;targetPerimeterSpacing=5;sourcePerimeterSpacing=6;strokeWidth=1;endSize=12;startSize=12;" edge="1" parent="WIyWlLk6GJQsqaUBKTNV-1" source="Ojp43rDfp6tGNWUgZN2r-33" target="Ojp43rDfp6tGNWUgZN2r-35">
          <mxGeometry relative="1" as="geometry" />
        </mxCell>
        <mxCell id="Ojp43rDfp6tGNWUgZN2r-42" style="edgeStyle=orthogonalEdgeStyle;rounded=0;orthogonalLoop=1;jettySize=auto;html=1;exitX=0;exitY=0.5;exitDx=0;exitDy=0;endArrow=diamond;endFill=0;startArrow=open;startFill=0;targetPerimeterSpacing=5;sourcePerimeterSpacing=6;jumpSize=5;strokeWidth=1;endSize=12;startSize=12;" edge="1" parent="WIyWlLk6GJQsqaUBKTNV-1" source="SxJE1SRth8L4zCqISxiC-4">
          <mxGeometry relative="1" as="geometry">
            <mxPoint x="-240" y="655" as="targetPoint" />
            <Array as="points">
              <mxPoint x="-160" y="657" />
              <mxPoint x="-160" y="655" />
            </Array>
          </mxGeometry>
        </mxCell>
        <mxCell id="Ojp43rDfp6tGNWUgZN2r-43" style="edgeStyle=orthogonalEdgeStyle;rounded=0;orthogonalLoop=1;jettySize=auto;html=1;entryX=1;entryY=0.5;entryDx=0;entryDy=0;exitX=0.497;exitY=1.158;exitDx=0;exitDy=0;exitPerimeter=0;endArrow=diamond;endFill=0;startArrow=open;startFill=0;targetPerimeterSpacing=5;sourcePerimeterSpacing=6;strokeWidth=1;endSize=12;startSize=12;" edge="1" parent="WIyWlLk6GJQsqaUBKTNV-1" source="Ojp43rDfp6tGNWUgZN2r-70" target="Ojp43rDfp6tGNWUgZN2r-24">
          <mxGeometry relative="1" as="geometry">
            <Array as="points">
              <mxPoint x="-196" y="536" />
              <mxPoint x="-196" y="629" />
            </Array>
          </mxGeometry>
        </mxCell>
        <mxCell id="Ojp43rDfp6tGNWUgZN2r-52" style="edgeStyle=orthogonalEdgeStyle;rounded=0;orthogonalLoop=1;jettySize=auto;html=1;entryX=0;entryY=0.5;entryDx=0;entryDy=0;endArrow=open;endFill=0;align=left;verticalAlign=bottom;endSize=12;startArrow=diamondThin;startSize=14;startFill=0;targetPerimeterSpacing=5;sourcePerimeterSpacing=6;strokeWidth=1;exitX=1;exitY=0.5;exitDx=0;exitDy=0;" edge="1" parent="WIyWlLk6GJQsqaUBKTNV-1" source="Ojp43rDfp6tGNWUgZN2r-51" target="Ojp43rDfp6tGNWUgZN2r-49">
          <mxGeometry relative="1" as="geometry">
            <mxPoint x="-720" y="730" as="sourcePoint" />
            <Array as="points">
              <mxPoint x="-570" y="571" />
              <mxPoint x="-570" y="961" />
            </Array>
          </mxGeometry>
        </mxCell>
        <mxCell id="Ojp43rDfp6tGNWUgZN2r-46" value="ParcelaModel" style="swimlane;fontStyle=0;childLayout=stackLayout;horizontal=1;startSize=26;fillColor=none;horizontalStack=0;resizeParent=1;resizeParentMax=0;resizeLast=0;collapsible=1;marginBottom=0;whiteSpace=wrap;html=1;" vertex="1" parent="WIyWlLk6GJQsqaUBKTNV-1">
          <mxGeometry x="-520" y="870" width="190" height="156" as="geometry" />
        </mxCell>
        <mxCell id="Ojp43rDfp6tGNWUgZN2r-47" value="+ nrParcela: int" style="text;strokeColor=none;fillColor=none;align=left;verticalAlign=top;spacingLeft=4;spacingRight=4;overflow=hidden;rotatable=0;points=[[0,0.5],[1,0.5]];portConstraint=eastwest;whiteSpace=wrap;html=1;" vertex="1" parent="Ojp43rDfp6tGNWUgZN2r-46">
          <mxGeometry y="26" width="190" height="26" as="geometry" />
        </mxCell>
        <mxCell id="Ojp43rDfp6tGNWUgZN2r-48" value="+ vlParcela: Decimal(9,2)" style="text;strokeColor=none;fillColor=none;align=left;verticalAlign=top;spacingLeft=4;spacingRight=4;overflow=hidden;rotatable=0;points=[[0,0.5],[1,0.5]];portConstraint=eastwest;whiteSpace=wrap;html=1;" vertex="1" parent="Ojp43rDfp6tGNWUgZN2r-46">
          <mxGeometry y="52" width="190" height="26" as="geometry" />
        </mxCell>
        <mxCell id="Ojp43rDfp6tGNWUgZN2r-49" value="+ dtRecebimento: datetime" style="text;strokeColor=none;fillColor=none;align=left;verticalAlign=top;spacingLeft=4;spacingRight=4;overflow=hidden;rotatable=0;points=[[0,0.5],[1,0.5]];portConstraint=eastwest;whiteSpace=wrap;html=1;" vertex="1" parent="Ojp43rDfp6tGNWUgZN2r-46">
          <mxGeometry y="78" width="190" height="26" as="geometry" />
        </mxCell>
        <mxCell id="Ojp43rDfp6tGNWUgZN2r-50" value="+ inInadimplente: bool" style="text;strokeColor=none;fillColor=none;align=left;verticalAlign=top;spacingLeft=4;spacingRight=4;overflow=hidden;rotatable=0;points=[[0,0.5],[1,0.5]];portConstraint=eastwest;whiteSpace=wrap;html=1;" vertex="1" parent="Ojp43rDfp6tGNWUgZN2r-46">
          <mxGeometry y="104" width="190" height="26" as="geometry" />
        </mxCell>
        <mxCell id="Ojp43rDfp6tGNWUgZN2r-53" value="+ cdBoleto: string" style="text;strokeColor=none;fillColor=none;align=left;verticalAlign=top;spacingLeft=4;spacingRight=4;overflow=hidden;rotatable=0;points=[[0,0.5],[1,0.5]];portConstraint=eastwest;whiteSpace=wrap;html=1;" vertex="1" parent="Ojp43rDfp6tGNWUgZN2r-46">
          <mxGeometry y="130" width="190" height="26" as="geometry" />
        </mxCell>
        <mxCell id="Ojp43rDfp6tGNWUgZN2r-55" value="CobrancaModel" style="swimlane;fontStyle=0;childLayout=stackLayout;horizontal=1;startSize=26;fillColor=none;horizontalStack=0;resizeParent=1;resizeParentMax=0;resizeLast=0;collapsible=1;marginBottom=0;whiteSpace=wrap;html=1;" vertex="1" parent="WIyWlLk6GJQsqaUBKTNV-1">
          <mxGeometry x="-780" y="10" width="270" height="282" as="geometry" />
        </mxCell>
        <mxCell id="Ojp43rDfp6tGNWUgZN2r-56" value="+ cdCobranca: string" style="text;strokeColor=none;fillColor=none;align=left;verticalAlign=top;spacingLeft=4;spacingRight=4;overflow=hidden;rotatable=0;points=[[0,0.5],[1,0.5]];portConstraint=eastwest;whiteSpace=wrap;html=1;" vertex="1" parent="Ojp43rDfp6tGNWUgZN2r-55">
          <mxGeometry y="26" width="270" height="22" as="geometry" />
        </mxCell>
        <mxCell id="Ojp43rDfp6tGNWUgZN2r-63" value="+ proprietario: ProprietarioModel" style="text;strokeColor=none;fillColor=none;align=left;verticalAlign=top;spacingLeft=4;spacingRight=4;overflow=hidden;rotatable=0;points=[[0,0.5],[1,0.5]];portConstraint=eastwest;whiteSpace=wrap;html=1;" vertex="1" parent="Ojp43rDfp6tGNWUgZN2r-55">
          <mxGeometry y="48" width="270" height="26" as="geometry" />
        </mxCell>
        <mxCell id="Ojp43rDfp6tGNWUgZN2r-58" value="+ mmReferencia: string" style="text;strokeColor=none;fillColor=none;align=left;verticalAlign=top;spacingLeft=4;spacingRight=4;overflow=hidden;rotatable=0;points=[[0,0.5],[1,0.5]];portConstraint=eastwest;whiteSpace=wrap;html=1;" vertex="1" parent="Ojp43rDfp6tGNWUgZN2r-55">
          <mxGeometry y="74" width="270" height="26" as="geometry" />
        </mxCell>
        <mxCell id="Ojp43rDfp6tGNWUgZN2r-62" value="+ aaReferencia: string" style="text;strokeColor=none;fillColor=none;align=left;verticalAlign=top;spacingLeft=4;spacingRight=4;overflow=hidden;rotatable=0;points=[[0,0.5],[1,0.5]];portConstraint=eastwest;whiteSpace=wrap;html=1;" vertex="1" parent="Ojp43rDfp6tGNWUgZN2r-55">
          <mxGeometry y="100" width="270" height="26" as="geometry" />
        </mxCell>
        <mxCell id="Ojp43rDfp6tGNWUgZN2r-60" value="+ dtRecebimento: date" style="text;strokeColor=none;fillColor=none;align=left;verticalAlign=top;spacingLeft=4;spacingRight=4;overflow=hidden;rotatable=0;points=[[0,0.5],[1,0.5]];portConstraint=eastwest;whiteSpace=wrap;html=1;" vertex="1" parent="Ojp43rDfp6tGNWUgZN2r-55">
          <mxGeometry y="126" width="270" height="26" as="geometry" />
        </mxCell>
        <mxCell id="Ojp43rDfp6tGNWUgZN2r-65" value="+ vlCustoTotal: Decimal(9,2)" style="text;strokeColor=none;fillColor=none;align=left;verticalAlign=top;spacingLeft=4;spacingRight=4;overflow=hidden;rotatable=0;points=[[0,0.5],[1,0.5]];portConstraint=eastwest;whiteSpace=wrap;html=1;" vertex="1" parent="Ojp43rDfp6tGNWUgZN2r-55">
          <mxGeometry y="152" width="270" height="26" as="geometry" />
        </mxCell>
        <mxCell id="Ojp43rDfp6tGNWUgZN2r-66" value="+ vlCobranca: Decimal(9,2)" style="text;strokeColor=none;fillColor=none;align=left;verticalAlign=top;spacingLeft=4;spacingRight=4;overflow=hidden;rotatable=0;points=[[0,0.5],[1,0.5]];portConstraint=eastwest;whiteSpace=wrap;html=1;" vertex="1" parent="Ojp43rDfp6tGNWUgZN2r-55">
          <mxGeometry y="178" width="270" height="26" as="geometry" />
        </mxCell>
        <mxCell id="Ojp43rDfp6tGNWUgZN2r-68" value="+ cdBoleto: string" style="text;strokeColor=none;fillColor=none;align=left;verticalAlign=top;spacingLeft=4;spacingRight=4;overflow=hidden;rotatable=0;points=[[0,0.5],[1,0.5]];portConstraint=eastwest;whiteSpace=wrap;html=1;" vertex="1" parent="Ojp43rDfp6tGNWUgZN2r-55">
          <mxGeometry y="204" width="270" height="26" as="geometry" />
        </mxCell>
        <mxCell id="Ojp43rDfp6tGNWUgZN2r-69" value="+ inAtraso: bool" style="text;strokeColor=none;fillColor=none;align=left;verticalAlign=top;spacingLeft=4;spacingRight=4;overflow=hidden;rotatable=0;points=[[0,0.5],[1,0.5]];portConstraint=eastwest;whiteSpace=wrap;html=1;" vertex="1" parent="Ojp43rDfp6tGNWUgZN2r-55">
          <mxGeometry y="230" width="270" height="26" as="geometry" />
        </mxCell>
        <mxCell id="Ojp43rDfp6tGNWUgZN2r-71" value="+ lsNotificacoes: List&amp;lt;NotificaoCobrancaModel&amp;gt;" style="text;strokeColor=none;fillColor=none;align=left;verticalAlign=top;spacingLeft=4;spacingRight=4;overflow=hidden;rotatable=0;points=[[0,0.5],[1,0.5]];portConstraint=eastwest;whiteSpace=wrap;html=1;" vertex="1" parent="Ojp43rDfp6tGNWUgZN2r-55">
          <mxGeometry y="256" width="270" height="26" as="geometry" />
        </mxCell>
        <mxCell id="Ojp43rDfp6tGNWUgZN2r-72" value="NotificaoCobrancaModel" style="swimlane;fontStyle=0;childLayout=stackLayout;horizontal=1;startSize=26;fillColor=none;horizontalStack=0;resizeParent=1;resizeParentMax=0;resizeLast=0;collapsible=1;marginBottom=0;whiteSpace=wrap;html=1;" vertex="1" parent="WIyWlLk6GJQsqaUBKTNV-1">
          <mxGeometry x="-270" y="70" width="240" height="100" as="geometry" />
        </mxCell>
        <mxCell id="Ojp43rDfp6tGNWUgZN2r-73" value="+ cdNotificaoCobrancaModel: string" style="text;strokeColor=none;fillColor=none;align=left;verticalAlign=top;spacingLeft=4;spacingRight=4;overflow=hidden;rotatable=0;points=[[0,0.5],[1,0.5]];portConstraint=eastwest;whiteSpace=wrap;html=1;" vertex="1" parent="Ojp43rDfp6tGNWUgZN2r-72">
          <mxGeometry y="26" width="240" height="22" as="geometry" />
        </mxCell>
        <mxCell id="Ojp43rDfp6tGNWUgZN2r-77" value="+ dtNotificacao: datetime" style="text;strokeColor=none;fillColor=none;align=left;verticalAlign=top;spacingLeft=4;spacingRight=4;overflow=hidden;rotatable=0;points=[[0,0.5],[1,0.5]];portConstraint=eastwest;whiteSpace=wrap;html=1;" vertex="1" parent="Ojp43rDfp6tGNWUgZN2r-72">
          <mxGeometry y="48" width="240" height="26" as="geometry" />
        </mxCell>
        <mxCell id="Ojp43rDfp6tGNWUgZN2r-79" value="+ vlCobranca: Decimal(9,2)" style="text;strokeColor=none;fillColor=none;align=left;verticalAlign=top;spacingLeft=4;spacingRight=4;overflow=hidden;rotatable=0;points=[[0,0.5],[1,0.5]];portConstraint=eastwest;whiteSpace=wrap;html=1;" vertex="1" parent="Ojp43rDfp6tGNWUgZN2r-72">
          <mxGeometry y="74" width="240" height="26" as="geometry" />
        </mxCell>
        <mxCell id="Ojp43rDfp6tGNWUgZN2r-83" style="edgeStyle=orthogonalEdgeStyle;rounded=0;orthogonalLoop=1;jettySize=auto;html=1;entryX=1;entryY=0.5;entryDx=0;entryDy=0;exitX=0;exitY=0.5;exitDx=0;exitDy=0;endArrow=diamond;endFill=0;startArrow=open;startFill=0;targetPerimeterSpacing=5;sourcePerimeterSpacing=6;strokeWidth=1;endSize=12;startSize=12;" edge="1" parent="WIyWlLk6GJQsqaUBKTNV-1" source="Ojp43rDfp6tGNWUgZN2r-77" target="Ojp43rDfp6tGNWUgZN2r-71">
          <mxGeometry relative="1" as="geometry">
            <mxPoint x="-269.9999999999998" y="131" as="sourcePoint" />
          </mxGeometry>
        </mxCell>
        <mxCell id="Ojp43rDfp6tGNWUgZN2r-41" style="edgeStyle=orthogonalEdgeStyle;rounded=0;orthogonalLoop=1;jettySize=auto;html=1;entryX=0.016;entryY=0.115;entryDx=0;entryDy=0;endArrow=open;endFill=0;align=left;verticalAlign=bottom;endSize=12;startArrow=diamondThin;startSize=14;startFill=0;exitX=1.011;exitY=0.115;exitDx=0;exitDy=0;entryPerimeter=0;exitPerimeter=0;" edge="1" parent="WIyWlLk6GJQsqaUBKTNV-1" source="Ojp43rDfp6tGNWUgZN2r-21" target="SxJE1SRth8L4zCqISxiC-109">
          <mxGeometry relative="1" as="geometry">
            <mxPoint x="-290" y="467" as="sourcePoint" />
          </mxGeometry>
        </mxCell>
        <mxCell id="Ojp43rDfp6tGNWUgZN2r-40" style="edgeStyle=orthogonalEdgeStyle;rounded=0;orthogonalLoop=1;jettySize=auto;html=1;endArrow=open;endFill=0;align=left;verticalAlign=bottom;endSize=12;startArrow=diamondThin;startSize=14;startFill=0;targetPerimeterSpacing=5;sourcePerimeterSpacing=6;strokeWidth=1;entryX=0;entryY=0.5;entryDx=0;entryDy=0;exitX=1;exitY=0.5;exitDx=0;exitDy=0;" edge="1" parent="WIyWlLk6GJQsqaUBKTNV-1" source="Ojp43rDfp6tGNWUgZN2r-22" target="Ojp43rDfp6tGNWUgZN2r-27">
          <mxGeometry relative="1" as="geometry">
            <mxPoint x="-540" y="740" as="sourcePoint" />
            <mxPoint x="-540" y="530" as="targetPoint" />
            <Array as="points">
              <mxPoint x="-540" y="519" />
              <mxPoint x="-540" y="717" />
            </Array>
          </mxGeometry>
        </mxCell>
      </root>
    </mxGraphModel>
  </diagram>
  <diagram id="04pxIPIWaYuexzplVdzx" name="Página-2">
    <mxGraphModel dx="1050" dy="629" grid="1" gridSize="10" guides="1" tooltips="1" connect="1" arrows="1" fold="1" page="1" pageScale="1" pageWidth="827" pageHeight="1169" math="0" shadow="0">
      <root>
        <mxCell id="0" />
        <mxCell id="1" parent="0" />
      </root>
    </mxGraphModel>
  </diagram>
</mxfile>
